<svg width="12" height="13" viewBox="0 0 12 13" fill="none" xmlns="http://www.w3.org/2000/svg">
<path opacity="0.5" d="M0.820312 2.8125C0.820312 2.13021 1.03646 1.56771 1.46875 1.125C1.90625 0.682292 2.46615 0.460938 3.14844 0.460938C3.84115 0.460938 4.40104 0.684896 4.82812 1.13281C5.26042 1.57552 5.47656 2.15104 5.47656 2.85938V3.41406C5.47656 4.10156 5.25781 4.66406 4.82031 5.10156C4.38802 5.53385 3.83594 5.75 3.16406 5.75C2.48698 5.75 1.92708 5.53385 1.48438 5.10156C1.04167 4.66406 0.820312 4.08333 0.820312 3.35938V2.8125ZM1.89844 3.41406C1.89844 3.82031 2.01302 4.15625 2.24219 4.42188C2.47135 4.68229 2.77865 4.8125 3.16406 4.8125C3.53385 4.8125 3.83073 4.6849 4.05469 4.42969C4.28385 4.17448 4.39844 3.82552 4.39844 3.38281V2.8125C4.39844 2.40625 4.28646 2.07031 4.0625 1.80469C3.83854 1.53906 3.53385 1.40625 3.14844 1.40625C2.76302 1.40625 2.45833 1.53906 2.23438 1.80469C2.01042 2.07031 1.89844 2.41667 1.89844 2.84375V3.41406ZM6.35938 9.21094C6.35938 8.52865 6.57552 7.96875 7.00781 7.53125C7.44531 7.08854 8.00521 6.86719 8.6875 6.86719C9.36979 6.86719 9.92969 7.08594 10.3672 7.52344C10.8047 7.96094 11.0234 8.54167 11.0234 9.26562V9.82031C11.0234 10.5026 10.8047 11.0651 10.3672 11.5078C9.9349 11.9453 9.38021 12.1641 8.70312 12.1641C8.02604 12.1641 7.46615 11.9479 7.02344 11.5156C6.58073 11.0781 6.35938 10.4974 6.35938 9.77344V9.21094ZM7.4375 9.82031C7.4375 10.2318 7.55208 10.5703 7.78125 10.8359C8.01042 11.0964 8.31771 11.2266 8.70312 11.2266C9.07812 11.2266 9.3776 11.099 9.60156 10.8438C9.82552 10.5833 9.9375 10.2318 9.9375 9.78906V9.21094C9.9375 8.79948 9.82292 8.46354 9.59375 8.20312C9.36979 7.94271 9.06771 7.8125 8.6875 7.8125C8.31771 7.8125 8.01562 7.94271 7.78125 8.20312C7.55208 8.45833 7.4375 8.80469 7.4375 9.24219V9.82031ZM3.49219 11.1406L2.67188 10.625L8.22656 1.73438L9.04688 2.25L3.49219 11.1406Z" fill="#454B5A"/>
</svg>
