<svg width="64" height="64" viewBox="0 0 64 64" fill="none" xmlns="http://www.w3.org/2000/svg">
<rect x="1" y="1" width="62" height="62" rx="3" stroke="#C0C5CB" stroke-width="2"/>
<path d="M23 7C20.8008 7 19 8.80078 19 11C19 12.2148 19.5703 13.2969 20.4375 14.0312C19.6211 14.375 18.8867 14.7852 18.25 15.2812C16.4219 16.7148 15.4102 18.6953 15.0312 20.8125C14.8945 21.1836 14.9883 21.6016 15.2734 21.8789C15.5586 22.1563 15.9805 22.2344 16.3477 22.0859C16.7148 21.9375 16.957 21.582 16.9687 21.1875C17.2773 19.4688 18.0859 17.9531 19.5 16.8438C20.7539 15.8633 22.5234 15.1758 25 15.0312V19.1875C23.2305 19.6641 21.6953 21.0273 20.5 22.625C19.0117 24.6172 18 27.043 18 29.2188V52.3125C18 54.8828 20.0898 57 22.6562 57H37.3437C39.9102 57 42 54.8828 42 52.3125V29.2188C42 27.043 40.9883 24.6172 39.5 22.625C38.3047 21.0273 36.7695 19.6641 35 19.1875V17H38.25C38.2812 17.082 38.3047 17.1719 38.3437 17.25C38.5742 17.6875 38.9336 18.1016 39.5312 18.2812C39.5508 18.293 39.5742 18.3047 39.5937 18.3125L51.7812 20.9688C52.0781 21.0352 52.3867 20.9648 52.6211 20.7773C52.8594 20.5859 52.9961 20.3008 53 20V9C53.0039 8.71094 52.8789 8.4375 52.6641 8.24609C52.4492 8.05469 52.1602 7.96484 51.875 8C51.8438 8.00781 51.8125 8.01953 51.7812 8.03125L39.5937 10.6875C39.5742 10.6953 39.5508 10.707 39.5312 10.7188C38.9336 10.8984 38.5742 11.3125 38.3437 11.75C38.3047 11.8281 38.2812 11.918 38.25 12H35V10.8438C35 9.24219 33.6016 8 32 8H28C27.3203 8 26.6719 8.21094 26.1562 8.59375C25.4219 7.64062 24.2852 7 23 7ZM23 9C24.1172 9 25 9.88281 25 11C25 12.1172 24.1172 13 23 13C21.8828 13 21 12.1172 21 11C21 9.88281 21.8828 9 23 9ZM28 10H32C32.6094 10 33 10.4219 33 10.8438V12.6875C32.9414 12.8828 32.9414 13.0859 33 13.2812V15.6875C32.9414 15.8828 32.9414 16.0859 33 16.2812V19H27V14.1875C27.0273 14.0547 27.0273 13.9141 27 13.7812V10.8438C27 10.4219 27.3906 10 28 10ZM51 10.25V18.75L40.125 16.375V16.3438C40.1367 16.3438 40.1445 16.3477 40.125 16.3125C40.0742 16.2148 40.0156 16.043 40 15.875C40 15.8438 40 15.8125 40 15.7812V13.2188C40.0039 13.1758 40.0039 13.1367 40 13.0938C40.0195 12.9375 40.0781 12.7773 40.125 12.6875C40.1445 12.6523 40.1367 12.6562 40.125 12.6562V12.625L51 10.25ZM35 14H38V15H35V14ZM26.2187 21C26.2617 20.9961 26.3047 21 26.3437 21H33.6562C34.9883 21 36.6445 22.1211 37.9062 23.8125C39.168 25.5039 40 27.707 40 29.2188V52.3125C40 53.8086 38.8242 55 37.3437 55H22.6562C21.1758 55 20 53.8086 20 52.3125V29.2188C20 27.707 20.832 25.5039 22.0937 23.8125C23.3203 22.1719 24.9102 21.0664 26.2187 21Z" fill="#C0C5CB"/>
</svg>
