<svg width="64" height="64" viewBox="0 0 64 64" fill="none" xmlns="http://www.w3.org/2000/svg">
<path d="M32 9C19.3086 9 9 19.3086 9 32C9 44.6914 19.3086 55 32 55C44.6914 55 55 44.6914 55 32C55 19.3086 44.6914 9 32 9ZM32 11C43.6094 11 53 20.3906 53 32C53 43.6094 43.6094 53 32 53C20.3906 53 11 43.6094 11 32C11 20.3906 20.3906 11 32 11ZM32 14C30.168 14 28.6445 14.9219 27.625 16.0938C26.6016 17.2617 26 18.668 26 20C26 20.75 26.2148 21.6094 26.5039 22.6719C26.793 23.7305 27.1719 24.9297 27.5508 26.0664C28.0977 27.7031 28.5391 28.918 28.8008 29.6289C28.6172 29.875 28.457 30.1328 28.332 30.418C27.582 30.5469 26.3164 30.7734 24.6367 31.1133C23.4648 31.3555 22.2344 31.625 21.1719 31.9062C20.1094 32.1875 19.2578 32.4297 18.6094 32.8047C17.4531 33.4727 16.5352 34.6953 16.0352 36.1641C15.5352 37.6328 15.4961 39.4141 16.4141 41C17.3281 42.5859 18.8906 43.4453 20.4102 43.7461C21.9336 44.0469 23.4531 43.8633 24.6094 43.1953C25.2578 42.8203 25.8945 42.207 26.668 41.4258C27.4414 40.6445 28.293 39.7148 29.0859 38.8203C30.2344 37.5273 31.0664 36.5352 31.5508 35.9531C31.6992 35.9688 31.8477 36 32 36C32.1523 36 32.3008 35.9688 32.4492 35.9531C32.9336 36.5352 33.7656 37.5273 34.9141 38.8203C35.707 39.7148 36.5586 40.6445 37.332 41.4258C38.1055 42.207 38.7422 42.8203 39.3906 43.1953C40.5469 43.8633 42.0664 44.0469 43.5898 43.7461C45.1094 43.4453 46.6719 42.5859 47.5898 41C48.5039 39.4141 48.4648 37.6328 47.9648 36.1641C47.4648 34.6953 46.5469 33.4727 45.3906 32.8047C44.7422 32.4297 43.8906 32.1875 42.8281 31.9062C41.7656 31.625 40.5352 31.3555 39.3633 31.1133C37.6836 30.7734 36.418 30.5469 35.668 30.418C35.543 30.1328 35.3828 29.875 35.1992 29.6289C35.4609 28.918 35.9023 27.7031 36.4492 26.0664C36.8281 24.9297 37.207 23.7305 37.4961 22.6719C37.7852 21.6094 38 20.75 38 20C38 18.668 37.3984 17.2617 36.375 16.0938C35.3555 14.9219 33.832 14 32 14ZM32 16C33.168 16 34.1445 16.5781 34.875 17.4062C35.6016 18.2383 36 19.332 36 20C36 20.25 35.8398 21.1406 35.5664 22.1406C35.293 23.1445 34.9219 24.3203 34.5508 25.4336C34.1875 26.5234 33.8281 27.5469 33.5508 28.3164C33.0742 28.1133 32.5469 28 32 28C31.4531 28 30.9258 28.1133 30.4492 28.3164C30.1719 27.5469 29.8125 26.5234 29.4492 25.4336C29.0781 24.3203 28.707 23.1445 28.4336 22.1406C28.1602 21.1406 28 20.25 28 20C28 19.332 28.3984 18.2383 29.125 17.4062C29.8555 16.5781 30.832 16 32 16ZM32 30C33.1172 30 34 30.8828 34 32C34 33.1172 33.1172 34 32 34C30.8828 34 30 33.1172 30 32C30 30.8828 30.8828 30 32 30ZM28.0508 32.5C28.1875 33.5859 28.7617 34.5352 29.5938 35.1719C29.0664 35.7969 28.3555 36.625 27.5898 37.4922C26.8086 38.3711 25.9805 39.2812 25.25 40.0156C24.5156 40.7539 23.8242 41.3398 23.6094 41.4648C23.0312 41.7969 21.8828 41.9961 20.8008 41.7812C19.7188 41.5703 18.7266 41.0117 18.1445 40C17.5625 38.9883 17.5703 37.8555 17.9258 36.8086C18.2852 35.7617 19.0312 34.8672 19.6094 34.5352C19.8242 34.4102 20.6758 34.1055 21.6836 33.8398C22.6875 33.5742 23.8867 33.3086 25.0352 33.0742C26.1719 32.8438 27.2422 32.6445 28.0508 32.5ZM35.9492 32.5C36.7578 32.6445 37.8281 32.8438 38.9648 33.0742C40.1133 33.3086 41.3125 33.5742 42.3164 33.8398C43.3242 34.1055 44.1758 34.4102 44.3906 34.5352C44.9688 34.8672 45.7148 35.7617 46.0742 36.8086C46.4297 37.8555 46.4375 38.9883 45.8555 40C45.2734 41.0117 44.2812 41.5703 43.1992 41.7812C42.1172 41.9961 40.9688 41.7969 40.3906 41.4648C40.1758 41.3398 39.4844 40.7539 38.75 40.0156C38.0195 39.2812 37.1914 38.3711 36.4102 37.4922C35.6445 36.625 34.9336 35.7969 34.4062 35.1719C35.2383 34.5352 35.8125 33.5859 35.9492 32.5Z" fill="#C0C5CB"/>
<rect x="1" y="1" width="62" height="62" rx="3" stroke="#C0C5CB" stroke-width="2"/>
</svg>
