<svg width="30" height="30" viewBox="0 0 30 30" fill="none" xmlns="http://www.w3.org/2000/svg">
<path d="M7 3C5.895 3 5 3.895 5 5V26C5 27.105 5.895 28 7 28H23C24.105 28 25 27.105 25 26V10.5C25 10.235 24.895 9.98097 24.707 9.79297L18.207 3.29297C18.019 3.10497 17.765 3 17.5 3H7ZM17 4.9043L23.0957 11H18C17.448 11 17 10.552 17 10V4.9043ZM14.0781 12.3008C14.6211 12.3008 15.0764 12.5303 15.3594 12.9473C15.5874 13.2813 15.6973 13.7107 15.6973 14.2617C15.6973 15.2067 15.2742 16.6903 14.6152 18.2793C14.9332 19.0003 15.3042 19.7143 15.6992 20.3633C16.6172 20.3693 17.8792 20.4528 18.9082 20.7988C20.3892 21.2948 20.7012 22.111 20.7012 22.709C20.7002 23.57 20.0018 24.5 18.4668 24.5C17.3318 24.5 16.0666 23.3485 14.9746 21.7715C14.1786 21.7975 13.4225 21.8752 12.7285 21.9922C11.4565 24.0732 10.015 25.7012 8.91602 25.7012C7.70802 25.7012 7.30078 24.5079 7.30078 23.9629C7.30078 22.2499 9.46733 21.2372 11.8613 20.7422C12.3133 19.9712 12.7509 19.1375 13.1289 18.3105C12.5719 16.9295 12.2285 15.5792 12.2285 14.5762C12.2285 13.9402 12.3592 13.425 12.6172 13.041C12.9392 12.563 13.4591 12.3008 14.0781 12.3008ZM14.0762 13.6992C13.8592 13.6992 13.8103 13.7733 13.7773 13.8223C13.7213 13.9053 13.627 14.1142 13.627 14.5762C13.627 15.0882 13.7292 15.6871 13.9062 16.3281C14.1683 15.5101 14.3179 14.7658 14.2969 14.1758C14.2809 13.6998 14.1662 13.6992 14.0762 13.6992ZM16.7051 21.8047C17.3481 22.5927 17.9768 23.0996 18.4648 23.0996C19.0408 23.0996 19.2988 22.903 19.2988 22.707C19.2998 22.523 18.9719 22.294 18.4629 22.123C18.0009 21.968 17.3971 21.8607 16.7051 21.8047ZM10.748 22.4746C9.48305 22.9016 8.69922 23.4569 8.69922 23.9609C8.70022 23.9609 8.75606 24.3008 8.91406 24.3008C9.29406 24.2738 9.98605 23.5486 10.748 22.4746Z" fill="#FF6464"/>
</svg>
