<svg width="64" height="64" viewBox="0 0 64 64" fill="none" xmlns="http://www.w3.org/2000/svg">
<path d="M29 6V15.3125C23.0742 16.5156 18.5039 21.2031 18.0312 27H17C16.9688 27 16.9375 27 16.9062 27C16.8438 27.0039 16.7812 27.0156 16.7188 27.0312C15.207 27.1797 14 28.4531 14 30C14 31.4922 15.125 32.7188 16.5625 32.9375C16.5938 32.9414 16.625 32.9648 16.6562 32.9688C16.7188 32.9844 16.7812 32.9961 16.8438 33C16.8984 33.0039 16.9453 33 17 33H47C47.0312 33 47.0625 33 47.0938 33C47.1055 33 47.1133 33 47.125 33C47.1797 32.9961 47.2266 32.9727 47.2812 32.9688C48.793 32.8203 50 31.5469 50 30C50 28.4531 48.793 27.1797 47.2812 27.0312C47.207 27.0234 47.1367 27 47.0625 27C47.043 27 47.0195 27 47 27H45.9688C45.4961 21.2031 40.9258 16.5156 35 15.3125V6H33V15.0312C32.6641 15.0078 32.3398 15 32 15C31.6602 15 31.3359 15.0078 31 15.0312V6H29ZM32 17C38.3086 17 43.3906 21.418 43.9375 27H20.0625C20.6094 21.418 25.6914 17 32 17ZM16.9688 29C16.9805 29 16.9883 29 17 29H47C47.0312 29 47.0625 29 47.0938 29C47.6133 29.0469 48 29.4688 48 30C48 30.543 47.5977 30.9688 47.0625 31C47.043 31 47.0195 31 47 31H17C16.9688 31 16.9375 31.0039 16.9062 31C16.3867 30.9531 16 30.5312 16 30C16 29.4453 16.418 29.0156 16.9688 29ZM24 36C22.8945 36 22 36.8945 22 38C22 39.1055 22.8945 40 24 40C25.1055 40 26 39.1055 26 38C26 36.8945 25.1055 36 24 36ZM32 36C30.8945 36 30 36.8945 30 38C30 39.1055 30.8945 40 32 40C33.1055 40 34 39.1055 34 38C34 36.8945 33.1055 36 32 36ZM40 36C38.8945 36 38 36.8945 38 38C38 39.1055 38.8945 40 40 40C41.1055 40 42 39.1055 42 38C42 36.8945 41.1055 36 40 36ZM20 44C18.8945 44 18 44.8945 18 46C18 47.1055 18.8945 48 20 48C21.1055 48 22 47.1055 22 46C22 44.8945 21.1055 44 20 44ZM28 44C26.8945 44 26 44.8945 26 46C26 47.1055 26.8945 48 28 48C29.1055 48 30 47.1055 30 46C30 44.8945 29.1055 44 28 44ZM36 44C34.8945 44 34 44.8945 34 46C34 47.1055 34.8945 48 36 48C37.1055 48 38 47.1055 38 46C38 44.8945 37.1055 44 36 44ZM44 44C42.8945 44 42 44.8945 42 46C42 47.1055 42.8945 48 44 48C45.1055 48 46 47.1055 46 46C46 44.8945 45.1055 44 44 44ZM16 52C14.8945 52 14 52.8945 14 54C14 55.1055 14.8945 56 16 56C17.1055 56 18 55.1055 18 54C18 52.8945 17.1055 52 16 52ZM24 52C22.8945 52 22 52.8945 22 54C22 55.1055 22.8945 56 24 56C25.1055 56 26 55.1055 26 54C26 52.8945 25.1055 52 24 52ZM32 52C30.8945 52 30 52.8945 30 54C30 55.1055 30.8945 56 32 56C33.1055 56 34 55.1055 34 54C34 52.8945 33.1055 52 32 52ZM40 52C38.8945 52 38 52.8945 38 54C38 55.1055 38.8945 56 40 56C41.1055 56 42 55.1055 42 54C42 52.8945 41.1055 52 40 52ZM48 52C46.8945 52 46 52.8945 46 54C46 55.1055 46.8945 56 48 56C49.1055 56 50 55.1055 50 54C50 52.8945 49.1055 52 48 52Z" fill="#C0C5CB"/>
<rect x="1" y="1" width="62" height="62" rx="3" stroke="#C0C5CB" stroke-width="2"/>
</svg>
