<svg width="180" height="40" viewBox="0 0 180 40" fill="none" xmlns="http://www.w3.org/2000/svg">
<path fill-rule="evenodd" clip-rule="evenodd" d="M166.4 21.2C166.4 24.9559 169.453 28 173.219 28C175.369 28 177.286 27.0078 178.536 25.458C178.536 25.4563 178.536 25.4546 178.536 25.4523C178.766 25.1389 178.714 24.6975 178.41 24.451C178.109 24.2068 177.671 24.2447 177.413 24.532C177.411 24.532 177.409 24.532 177.407 24.5315C176.426 25.7577 174.915 26.5431 173.219 26.5431C170.592 26.5431 168.408 24.6584 167.95 22.1719H176.584H179.227C179.253 22.1747 179.28 22.1758 179.307 22.1758C179.632 22.1758 179.906 21.9611 180 21.6653V20.477C179.637 17.0617 176.74 14.4 173.219 14.4C169.453 14.4 166.4 17.4447 166.4 21.2ZM173.2 16C175.924 16 178.16 18.1088 178.4 20.8H168C168.24 18.1088 170.476 16 173.2 16Z" fill="white"/>
<path fill-rule="evenodd" clip-rule="evenodd" d="M151.2 21.2C151.2 24.9559 154.267 28 158.05 28C160.5 28 162.65 26.7228 163.86 24.8023L163.856 24.7995C163.866 24.7842 163.877 24.7683 163.887 24.7519C164.102 24.4091 163.999 23.9574 163.658 23.7449C163.316 23.5313 162.865 23.6367 162.651 23.9807C162.647 23.9858 162.644 23.9903 162.641 23.9954L162.638 23.9943C161.691 25.5231 159.991 26.5431 158.05 26.5431C155.077 26.5431 152.668 24.1507 152.668 21.2C152.668 18.2494 155.077 15.8569 158.05 15.8569C160.026 15.8569 161.753 16.9138 162.689 18.4897L162.714 18.4761C162.943 18.701 163.301 18.7566 163.591 18.5894C163.872 18.4273 164.003 18.1072 163.939 17.8057L163.975 17.7864C163.937 17.7218 163.898 17.6572 163.859 17.5943C163.857 17.5926 163.856 17.5915 163.856 17.5898C163.844 17.5688 163.831 17.549 163.817 17.5292C162.599 15.6473 160.471 14.4 158.05 14.4C154.267 14.4 151.2 17.4447 151.2 21.2Z" fill="white"/>
<path fill-rule="evenodd" clip-rule="evenodd" d="M134.4 21.2C134.4 24.9559 137.444 28 141.2 28C143.367 28 145.297 26.9863 146.543 25.407V27.0288H146.584C146.557 27.1047 146.543 27.1869 146.543 27.2719C146.543 27.6742 146.869 28 147.272 28C147.673 28 148 27.6742 148 27.2719C148 27.1869 147.985 27.1047 147.959 27.0288H148V21.2C148 17.4447 144.955 14.4 141.2 14.4C137.444 14.4 134.4 17.4447 134.4 21.2ZM136 21.2C136 18.3284 138.328 16 141.2 16C144.072 16 146.4 18.3284 146.4 21.2C146.4 24.0716 144.072 26.4 141.2 26.4C138.328 26.4 136 24.0716 136 21.2Z" fill="white"/>
<path fill-rule="evenodd" clip-rule="evenodd" d="M118.4 20.9763V29.6668C118.4 30.0767 118.726 30.4 119.129 30.4C119.531 30.4 119.857 30.0767 119.857 29.6668V25.0448C121.102 26.5721 123.033 27.5525 125.2 27.5525C128.955 27.5525 132 24.6085 132 20.9763C132 17.3445 128.955 14.4 125.2 14.4C121.444 14.4 118.4 17.3445 118.4 20.9763ZM120 21.2C120 18.3284 122.328 16 125.2 16C128.072 16 130.4 18.3284 130.4 21.2C130.4 24.0716 128.072 26 125.2 26C122.328 26 120 24.0716 120 21.2Z" fill="white"/>
<path fill-rule="evenodd" clip-rule="evenodd" d="M105.906 12.4175C104.969 13.2289 104.5 14.3657 104.5 15.8279C104.5 16.9305 104.933 17.8719 105.801 18.6536C106.668 19.4348 107.927 19.7994 109.627 20.0805C112.308 20.5207 113.676 21.6989 113.676 23.282C113.676 24.1635 113.347 24.8847 112.689 25.4453C112.032 26.007 111.011 26.287 109.627 26.287C107.681 26.287 106.27 25.6755 105.393 24.4535C105.235 24.2335 105.035 24.1231 104.789 24.1231C104.596 24.1231 104.447 24.173 104.342 24.2738C104.114 24.4535 104 24.6843 104 24.9648C104 25.1653 104.062 25.3456 104.184 25.5058C104.815 26.3475 105.613 26.973 106.577 27.384C107.541 27.7951 108.531 28 109.547 28C110.564 28 111.502 27.8096 112.361 27.4294C113.219 27.0486 113.907 26.5076 114.425 25.8059C114.942 25.1048 115.2 24.2934 115.2 23.3722C115.2 22.1895 114.793 21.1826 113.978 20.3515C113.163 19.5205 111.826 18.9543 109.968 18.6536C108.548 18.4128 107.536 18.0522 106.931 17.5717C106.327 17.0907 106.024 16.4495 106.024 15.6481C106.024 14.8669 106.34 14.2106 106.971 13.6797C107.602 13.1483 108.452 12.8834 109.522 12.8834C111.133 12.8834 112.387 13.5341 113.281 14.8367C113.456 15.0971 113.676 15.2275 113.939 15.2275C114.026 15.2275 114.157 15.1872 114.333 15.1066C114.613 14.9268 114.753 14.6961 114.753 14.4161C114.753 14.2151 114.701 14.0454 114.596 13.9048C113.456 12.1022 111.782 11.2 109.574 11.2C108.066 11.2 106.844 11.6055 105.906 12.4175Z" fill="white"/>
<path fill-rule="evenodd" clip-rule="evenodd" d="M84.8071 20.775H84.7998V27.15H84.8099C84.8032 27.1891 84.7998 27.2299 84.7998 27.2719C84.7998 27.6742 85.1259 28 85.5281 28C85.9308 28 86.257 27.6742 86.257 27.2719C86.257 27.2299 86.253 27.1891 86.2468 27.15H86.257V21.2C86.257 18.2494 88.6491 15.8569 91.6001 15.8569C94.5505 15.8569 96.9432 18.2494 96.9432 21.2V27.2719C96.9432 27.6742 97.2693 28 97.6715 28C98.0737 28 98.3998 27.6742 98.3998 27.2719V20.7144H98.3891C98.1897 17.1943 95.2264 14.4 91.6001 14.4C87.953 14.4 84.9761 17.226 84.8071 20.775Z" fill="white"/>
<path d="M68.7998 21.2C68.7998 24.9559 71.8441 28 75.5992 28C77.7435 28 79.6551 27.0078 80.9016 25.458C80.9016 25.4563 80.9016 25.4546 80.901 25.4523C81.1308 25.1389 81.0784 24.6975 80.7765 24.451C80.4758 24.2068 80.0387 24.2447 79.7807 24.532C79.7796 24.532 79.7779 24.532 79.7768 24.5315C78.7973 25.7577 77.2907 26.5431 75.5992 26.5431C72.9807 26.5431 70.8016 24.6584 70.3448 22.1719H78.9556H81.5904C81.6169 22.1747 81.6439 22.1758 81.6715 22.1758C82.0692 22.1758 82.3925 21.85 82.3953 21.4471C82.3981 21.3655 82.3998 21.2828 82.3998 21.2C82.3998 17.4447 79.3555 14.4 75.5992 14.4C71.8441 14.4 68.7998 17.4447 68.7998 21.2ZM75.5995 16C78.3235 16 80.5598 18.1088 80.7998 20.8H70.3998C70.6403 18.1088 72.8761 16 75.5995 16Z" fill="white"/>
<path fill-rule="evenodd" clip-rule="evenodd" d="M65.364 11.2553H53.5241C53.1242 11.2553 52.7998 11.5773 52.7998 11.9731C52.7998 12.3694 53.1242 12.6903 53.5241 12.6903H64.2285L53.1879 26.6465C52.9569 26.7665 52.7998 27.0065 52.7998 27.2828C52.7998 27.6791 53.1242 28 53.5241 28H65.6755C66.0754 28 66.3998 27.6791 66.3998 27.2828C66.3998 26.8859 66.0754 26.565 65.6755 26.565H54.9632L66.0022 12.6133C66.2382 12.4955 66.3998 12.2527 66.3998 11.9731C66.3998 11.5773 66.0754 11.2553 65.6755 11.2553H65.4637L65.4079 11.2L65.364 11.2553Z" fill="white"/>
<path fill-rule="evenodd" clip-rule="evenodd" d="M0 20.07C0 30.3491 7.70222 38.8237 17.63 40H22.3706C32.2989 38.8237 40 30.3491 40 20.07C40 8.98577 31.0461 0 20 0C8.955 0 0 8.98577 0 20.07Z" fill="#22428F"/>
<path fill-rule="evenodd" clip-rule="evenodd" d="M11.4383 21.2961C12.8655 24.4877 19.1485 19.9166 19.9995 18.1809C20.8517 19.9166 27.1352 24.4877 28.5624 21.2961C29.9886 18.1052 24.7286 14.4 19.9995 14.4C15.2715 14.4 10.011 18.1052 11.4383 21.2961ZM22.8 19.3139C21.3806 18.2631 20.8832 16.5116 18.4002 15.4603C20.1741 14.7601 22.9372 15.637 24.0765 16.161C26.4901 17.2714 27.8203 19.0234 26.9147 20.3646C26.7069 20.6723 26.389 20.8 26.0085 20.8C25.0899 20.8 23.8033 20.0569 22.8 19.3139ZM12.1756 20.8436C11.356 19.5463 13.6112 17.8337 14.7638 17.2776C15.9165 16.7221 18.0917 16.5643 19.2002 17.2776C18.4612 17.9909 17.3515 19.4175 16.2424 20.1297C15.4811 20.62 14.3726 21.6 13.3929 21.6C12.9446 21.6 12.5233 21.3946 12.1756 20.8436Z" fill="white"/>
<path fill-rule="evenodd" clip-rule="evenodd" d="M19.3831 16.8896C19.3215 16.8536 19.2607 16.8248 19.1999 16.8C19.2623 16.8288 19.3231 16.8592 19.3831 16.8896ZM18.3999 18.0802C18.5754 18.1931 18.7205 18.3208 18.8354 18.4627C18.9733 18.6314 19.1143 18.8779 19.2584 19.2C19.6062 18.7534 19.8667 18.3395 19.9999 18.009C19.873 17.6477 19.7461 17.3653 19.6192 17.1632C19.5268 17.0162 19.4349 16.895 19.343 16.8C19.0751 17.1311 18.7534 17.5938 18.3999 18.0802Z" fill="#B5B5B6"/>
<path fill-rule="evenodd" clip-rule="evenodd" d="M27.9982 22.4C25.1144 22.4 20.6368 25.9852 19.9999 27.86C19.3641 25.9852 14.8866 22.4 12.0022 22.4C11.0645 22.3994 10.2955 22.7787 9.8812 23.7194C8.19531 27.5514 14.4121 32 19.9999 32C25.5888 32 31.8057 27.5514 30.1187 23.7194C29.7055 22.7793 28.937 22.4 27.9999 22.4C27.9993 22.4 27.9988 22.4 27.9982 22.4ZM20.8001 29.0431C21.6217 28.211 22.8541 26.5468 24.0866 25.7147C25.319 24.8821 27.3725 22.8341 28.6049 24.8821C29.5164 26.3965 27.0104 28.3946 25.7298 29.0431C25.0506 29.3875 24.051 29.6 23.0793 29.6C22.2182 29.6 21.3785 29.4336 20.8001 29.0431ZM14.8911 29.301C12.0389 28.0323 10.4675 26.0308 11.5375 24.4974C12.3755 23.2965 14.7228 24.4974 16.4 25.6983C18.0771 26.8992 18.6646 28.9013 21.6001 30.1022C21.0444 30.3141 20.4066 30.4 19.7441 30.4C17.9071 30.4 15.8812 29.7419 14.8911 29.301Z" fill="white"/>
<path fill-rule="evenodd" clip-rule="evenodd" d="M20 27.2505C20.0806 27.3481 20.2128 27.4762 20.4193 27.6588C20.5685 27.7904 20.7172 27.9039 20.8664 28C21.0854 27.8049 21.3322 27.5617 21.6 27.2956C21.2272 27.1775 20.9759 27.0434 20.8448 26.8933C20.7109 26.7402 20.6088 26.5756 20.5384 26.4C20.2854 26.7072 20.1004 26.9959 20 27.2505ZM20.1192 27.4824C20.0848 27.3904 20.0456 27.296 20 27.2C20.0072 27.2784 20.0408 27.3664 20.1192 27.4824ZM22.1752 28.9952C21.9752 28.94 21.7824 28.8744 21.6 28.8C21.7912 28.888 21.9832 28.9536 22.1752 28.9952Z" fill="#B5B5B6"/>
<path fill-rule="evenodd" clip-rule="evenodd" d="M17.6001 9.60001C17.6001 10.9253 18.6753 12 20.0001 12C21.326 12 22.4001 10.9253 22.4001 9.60001C22.4001 8.27415 21.326 7.20001 20.0001 7.20001C18.6753 7.20001 17.6001 8.27415 17.6001 9.60001Z" fill="white"/>
</svg>
