<svg width="22" height="22" viewBox="0 0 22 22" fill="none" xmlns="http://www.w3.org/2000/svg">
<circle cx="11" cy="11" r="10.5" stroke="white"/>
<path d="M9.77148 13.4473C9.77148 12.7113 9.86279 12.1247 10.0454 11.6875C10.228 11.2503 10.5877 10.7716 11.1245 10.2515C11.6668 9.72575 12.0099 9.35221 12.1538 9.13086C12.3752 8.79329 12.4858 8.42806 12.4858 8.03516C12.4858 7.51497 12.3558 7.1193 12.0957 6.84814C11.8411 6.57145 11.4648 6.43311 10.9668 6.43311C10.4909 6.43311 10.1063 6.56868 9.81299 6.83984C9.52523 7.10547 9.38135 7.46794 9.38135 7.92725H7.36426C7.37533 6.94775 7.70736 6.17301 8.36035 5.60303C9.01888 5.03304 9.8877 4.74805 10.9668 4.74805C12.0791 4.74805 12.9451 5.03027 13.5649 5.59473C14.1903 6.15918 14.5029 6.94775 14.5029 7.96045C14.5029 8.86247 14.0824 9.75065 13.2412 10.625L12.2202 11.6294C11.855 12.0444 11.6668 12.6504 11.6558 13.4473H9.77148ZM9.63037 16.0288C9.63037 15.7023 9.73275 15.4395 9.9375 15.2402C10.1423 15.0355 10.4189 14.9331 10.7676 14.9331C11.1217 14.9331 11.4012 15.0382 11.606 15.2485C11.8107 15.4533 11.9131 15.7134 11.9131 16.0288C11.9131 16.3332 11.8135 16.5877 11.6143 16.7925C11.415 16.9972 11.1328 17.0996 10.7676 17.0996C10.4023 17.0996 10.1201 16.9972 9.9209 16.7925C9.72721 16.5877 9.63037 16.3332 9.63037 16.0288Z" fill="white"/>
</svg>
