<svg width="17" height="17" viewBox="0 0 17 17" fill="none" xmlns="http://www.w3.org/2000/svg">
<path d="M8.49999 1.41666C4.58999 1.41666 1.41666 4.58999 1.41666 8.49999C1.41666 12.41 4.58999 15.5833 8.49999 15.5833C12.41 15.5833 15.5833 12.41 15.5833 8.49999C15.5833 4.58999 12.41 1.41666 8.49999 1.41666ZM9.20832 13.4583H7.79166V12.0417H9.20832V13.4583ZM10.6746 7.96874L10.0371 8.62041C9.52707 9.13749 9.20832 9.56249 9.20832 10.625H7.79166V10.2708C7.79166 9.49166 8.11041 8.78332 8.62041 8.26624L9.49874 7.37374C9.76082 7.11874 9.91666 6.76457 9.91666 6.37499C9.91666 5.59582 9.27916 4.95832 8.49999 4.95832C7.72082 4.95832 7.08332 5.59582 7.08332 6.37499H5.66666C5.66666 4.80957 6.93457 3.54166 8.49999 3.54166C10.0654 3.54166 11.3333 4.80957 11.3333 6.37499C11.3333 6.99832 11.0783 7.56499 10.6746 7.96874Z" fill="#3CADFF"/>
</svg>
