<svg width="50" height="30" viewBox="0 0 50 30" fill="none" xmlns="http://www.w3.org/2000/svg">
<path d="M1 4H21C21.5523 4 22 4.44772 22 5V25C22 25.5523 21.5523 26 21 26H1V4Z" fill="white" stroke="#C0C5CB" stroke-width="2"/>
<path d="M7 6H6V7V23V24H7H13C13.5523 24 14 24.4477 14 25V28C14 28.5523 13.5523 29 13 29H8.33333H2C1.44772 29 1 28.5523 1 28V2C1 1.44772 1.44772 1 2 1H13C13.5523 1 14 1.44772 14 2V5C14 5.55228 13.5523 6 13 6H7Z" fill="white" stroke="#C0C5CB" stroke-width="2"/>
<rect x="14" y="14" width="2" height="2" fill="#C0C5CB"/>
<path d="M49 4H29C28.4477 4 28 4.44772 28 5V25C28 25.5523 28.4477 26 29 26H49V4Z" fill="white" stroke="#C0C5CB" stroke-width="2"/>
<path d="M43 6H44V7V23V24H43H37C36.4477 24 36 24.4477 36 25V28C36 28.5523 36.4477 29 37 29H41.6667H48C48.5523 29 49 28.5523 49 28V2C49 1.44772 48.5523 1 48 1H37C36.4477 1 36 1.44772 36 2V5C36 5.55228 36.4477 6 37 6H43Z" fill="white" stroke="#C0C5CB" stroke-width="2"/>
<rect width="2" height="2" transform="matrix(-1 0 0 1 36 14)" fill="#C0C5CB"/>
</svg>
